ply
format ascii 1.0
comment Created in Blender version 4.4.0
element vertex 220
property float x
property float y
property float z
property uchar red
property uchar green
property uchar blue
property uchar alpha
element face 310
property list uchar uint vertex_indices
end_header
0.2291379 -5.8769717 0.26316547 132 73 67 255
0.2291379 -5.8769717 3.1019127 132 73 67 255
0.2291379 -3.5971904 0.26316547 132 73 67 255
0.2291379 -3.5971904 3.1019127 132 73 67 255
2.229138 -5.8769717 0.26316547 132 73 67 255
2.229138 -5.8769717 3.1019127 132 73 67 255
2.229138 -3.5971904 0.26316547 132 73 67 255
2.229138 -3.5971904 3.1019127 132 73 67 255
-0.08193408 3.0440142 1.3630257 184 179 171 255
-0.82306516 3.0440142 2.7272737 184 179 171 255
-0.08193408 3.2433183 1.3630257 184 179 171 255
-0.82306516 3.2433183 2.7272737 184 179 171 255
0.26041773 3.0440142 1.5490091 184 179 171 255
-0.4807133 3.0440142 2.9132571 184 179 171 255
0.26041773 3.2433183 1.5490091 184 179 171 255
-0.4807133 3.2433183 2.9132571 184 179 171 255
-0.86057734 3.0440145 2.7506218 184 179 171 255
-0.8689151 3.0440145 3.3744843 184 179 171 255
-0.86057734 3.2433186 2.7506218 184 179 171 255
-0.8689151 3.2433186 3.3744843 184 179 171 255
-0.4710394 3.0440145 2.755828 184 179 171 255
-0.4793771 3.0440145 3.3796902 184 179 171 255
-0.4710394 3.2433186 2.755828 184 179 171 255
-0.4793771 3.2433186 3.3796902 184 179 171 255
-0.8721876 -3.8388362 2.3499684 184 179 171 255
-0.8721876 -3.8388362 2.8802097 184 179 171 255
-0.8721876 3.2739894 2.3499684 184 179 171 255
-0.8721876 3.2739894 2.8802097 184 179 171 255
-0.51525855 -3.8388362 2.3499684 184 179 171 255
-0.51525855 -3.8388362 2.8802097 184 179 171 255
-0.51525855 3.2739894 2.3499684 184 179 171 255
-0.51525855 3.2739894 2.8802097 184 179 171 255
-0.10915674 -3.7296576 1.8341955 184 179 171 255
-0.8007525 -3.7296576 2.2216656 184 179 171 255
-0.10915674 3.2110348 1.8341955 184 179 171 255
-0.8007525 3.2110348 2.2216656 184 179 171 255
0.028118908 -3.7296576 2.0792189 184 179 171 255
-0.6634768 -3.7296576 2.466689 184 179 171 255
0.028118908 3.2110348 2.0792189 184 179 171 255
-0.6634768 3.2110348 2.466689 184 179 171 255
0.07526907 -3.7296576 0.94998085 184 179 171 255
-0.3607682 -3.7296576 1.879872 184 179 171 255
0.07526907 3.2110348 0.94998085 184 179 171 255
-0.3607682 3.2110348 1.879872 184 179 171 255
0.3640088 -3.7296576 1.0853745 184 179 171 255
-0.07202846 -3.7296576 2.0152655 184 179 171 255
0.3640088 3.2110348 1.0853745 184 179 171 255
-0.07202846 3.2110348 2.0152655 184 179 171 255
1.0457025 -3.7296576 0.2664479 184 179 171 255
0.17426911 -3.7296576 0.8099824 184 179 171 255
1.0457025 3.2110348 0.2664479 184 179 171 255
0.17426911 3.2110348 0.8099824 184 179 171 255
1.2144748 -3.7296576 0.53703606 184 179 171 255
0.3430415 -3.7296576 1.0805706 184 179 171 255
1.2144748 3.2110348 0.53703606 184 179 171 255
0.3430415 3.2110348 1.0805706 184 179 171 255
-0.081933945 1.9991877 1.3630254 184 179 171 255
-0.8230649 1.9991877 2.7272735 184 179 171 255
-0.081933945 2.1984918 1.3630254 184 179 171 255
-0.8230649 2.1984918 2.7272735 184 179 171 255
0.2604179 1.9991877 1.549009 184 179 171 255
-0.48071316 1.9991877 2.913257 184 179 171 255
0.2604179 2.1984918 1.549009 184 179 171 255
-0.48071316 2.1984918 2.913257 184 179 171 255
-0.8605771 1.999188 2.7506216 184 179 171 255
-0.86891484 1.999188 3.374484 184 179 171 255
-0.8605771 2.198492 2.7506216 184 179 171 255
-0.86891484 2.198492 3.374484 184 179 171 255
-0.4710392 1.999188 2.7558277 184 179 171 255
-0.47937688 1.999188 3.37969 184 179 171 255
-0.4710392 2.198492 2.7558277 184 179 171 255
-0.47937688 2.198492 3.37969 184 179 171 255
-0.081933945 0.9493053 1.3630254 184 179 171 255
-0.8230649 0.9493053 2.7272735 184 179 171 255
-0.081933945 1.1486093 1.3630254 184 179 171 255
-0.8230649 1.1486093 2.7272735 184 179 171 255
0.2604179 0.9493053 1.549009 184 179 171 255
-0.48071316 0.9493053 2.913257 184 179 171 255
0.2604179 1.1486093 1.549009 184 179 171 255
-0.48071316 1.1486093 2.913257 184 179 171 255
-0.8605771 0.9493053 2.7506216 184 179 171 255
-0.86891484 0.9493053 3.374484 184 179 171 255
-0.8605771 1.1486095 2.7506216 184 179 171 255
-0.86891484 1.1486095 3.374484 184 179 171 255
-0.4710392 0.9493053 2.7558277 184 179 171 255
-0.47937688 0.9493053 3.37969 184 179 171 255
-0.4710392 1.1486095 2.7558277 184 179 171 255
-0.47937688 1.1486095 3.37969 184 179 171 255
-0.081933945 -0.020641088 1.3630254 184 179 171 255
-0.8230649 -0.020641088 2.7272735 184 179 171 255
-0.081933945 0.17866302 1.3630254 184 179 171 255
-0.8230649 0.17866302 2.7272735 184 179 171 255
0.2604179 -0.020641088 1.549009 184 179 171 255
-0.48071316 -0.020641088 2.913257 184 179 171 255
0.2604179 0.17866302 1.549009 184 179 171 255
-0.48071316 0.17866302 2.913257 184 179 171 255
-0.8605771 -0.02064085 2.7506216 184 179 171 255
-0.86891484 -0.02064085 3.374484 184 179 171 255
-0.8605771 0.17866325 2.7506216 184 179 171 255
-0.86891484 0.17866325 3.374484 184 179 171 255
-0.4710392 -0.02064085 2.7558277 184 179 171 255
-0.47937688 -0.02064085 3.37969 184 179 171 255
-0.4710392 0.17866325 2.7558277 184 179 171 255
-0.47937688 0.17866325 3.37969 184 179 171 255
-0.081933945 -0.96519804 1.3630254 184 179 171 255
-0.8230649 -0.96519804 2.7272735 184 179 171 255
-0.081933945 -0.76589394 1.3630254 184 179 171 255
-0.8230649 -0.76589394 2.7272735 184 179 171 255
0.2604179 -0.96519804 1.549009 184 179 171 255
-0.48071316 -0.96519804 2.913257 184 179 171 255
0.2604179 -0.76589394 1.549009 184 179 171 255
-0.48071316 -0.76589394 2.913257 184 179 171 255
-0.8605771 -0.96519756 2.7506216 184 179 171 255
-0.86891484 -0.96519756 3.374484 184 179 171 255
-0.8605771 -0.7658937 2.7506216 184 179 171 255
-0.86891484 -0.7658937 3.374484 184 179 171 255
-0.4710392 -0.96519756 2.7558277 184 179 171 255
-0.47937688 -0.96519756 3.37969 184 179 171 255
-0.4710392 -0.7658937 2.7558277 184 179 171 255
-0.47937688 -0.7658937 3.37969 184 179 171 255
-0.081933945 -1.9796786 1.3630254 184 179 171 255
-0.8230649 -1.9796786 2.7272735 184 179 171 255
-0.081933945 -1.7803745 1.3630254 184 179 171 255
-0.8230649 -1.7803745 2.7272735 184 179 171 255
0.2604179 -1.9796786 1.549009 184 179 171 255
-0.48071316 -1.9796786 2.913257 184 179 171 255
0.2604179 -1.7803745 1.549009 184 179 171 255
-0.48071316 -1.7803745 2.913257 184 179 171 255
-0.8605771 -1.9796782 2.7506216 184 179 171 255
-0.86891484 -1.9796782 3.374484 184 179 171 255
-0.8605771 -1.780374 2.7506216 184 179 171 255
-0.86891484 -1.780374 3.374484 184 179 171 255
-0.4710392 -1.9796782 2.7558277 184 179 171 255
-0.47937688 -1.9796782 3.37969 184 179 171 255
-0.4710392 -1.780374 2.7558277 184 179 171 255
-0.47937688 -1.780374 3.37969 184 179 171 255
-0.081933945 -2.971301 1.3630254 184 179 171 255
-0.8230649 -2.971301 2.7272735 184 179 171 255
-0.081933945 -2.771997 1.3630254 184 179 171 255
-0.8230649 -2.771997 2.7272735 184 179 171 255
0.2604179 -2.971301 1.549009 184 179 171 255
-0.48071316 -2.971301 2.913257 184 179 171 255
0.2604179 -2.771997 1.549009 184 179 171 255
-0.48071316 -2.771997 2.913257 184 179 171 255
-0.8605771 -2.971301 2.7506216 184 179 171 255
-0.86891484 -2.971301 3.374484 184 179 171 255
-0.8605771 -2.771997 2.7506216 184 179 171 255
-0.86891484 -2.771997 3.374484 184 179 171 255
-0.4710392 -2.971301 2.7558277 184 179 171 255
-0.47937688 -2.971301 3.37969 184 179 171 255
-0.4710392 -2.771997 2.7558277 184 179 171 255
-0.47937688 -2.771997 3.37969 184 179 171 255
0.022862762 -5.7836456 1.5362338 184 179 171 255
-0.8218926 -5.7836456 2.6334624 184 179 171 255
0.022862762 -3.526154 1.5362338 184 179 171 255
-0.8218926 -3.526154 2.6334624 184 179 171 255
0.2844682 -5.7836456 1.7376435 184 179 171 255
-0.56028724 -5.7836456 2.8348722 184 179 171 255
0.2844682 -3.526154 1.7376435 184 179 171 255
-0.56028724 -3.526154 2.8348722 184 179 171 255
-0.85959065 -5.928588 0.5318644 184 179 171 255
-0.85959065 -5.928588 3.3706117 184 179 171 255
-0.85959065 -3.5480165 0.5318644 184 179 171 255
-0.85959065 -3.5480165 3.3706117 184 179 171 255
-0.20075771 -5.928588 0.5318644 184 179 171 255
-0.20075765 -5.928588 3.3706117 184 179 171 255
-0.20075771 -3.5480165 0.5318644 184 179 171 255
-0.20075765 -3.5480165 3.3706117 184 179 171 255
-0.9650948 -3.585082 3.3848553 184 179 171 255
-0.4760761 -3.585082 3.3848555 184 179 171 255
-0.9650948 3.282901 3.3848553 184 179 171 255
-0.4760761 3.282901 3.3848555 184 179 171 255
0.24835777 -3.593233 0.23943567 13 134 203 255
43.28047 -3.593233 0.23943567 13 134 203 255
0.24835777 3.3110309 0.23943567 13 134 203 255
43.28047 3.3110309 0.23943567 13 134 203 255
-0.59281576 3.2029486 0.35602134 184 179 171 255
-0.59281576 3.2029486 1.5119345 184 179 171 255
-0.59281576 5.2029486 0.35602134 184 179 171 255
-0.59281576 5.2029486 1.5119345 184 179 171 255
0.8082957 3.2029486 0.35602134 184 179 171 255
0.8082957 3.2029486 1.5119345 184 179 171 255
0.8082957 5.2029486 0.35602134 184 179 171 255
0.8082957 5.2029486 1.5119345 184 179 171 255
-0.9045799 3.2101116 0.025118709 184 179 171 255
-0.9045799 3.2101116 2.918928 184 179 171 255
-0.9045799 5.2101116 0.025118709 184 179 171 255
-0.9045799 5.2101116 2.918928 184 179 171 255
-0.38570142 3.2101116 0.025118709 184 179 171 255
-0.38570142 3.2101116 2.918928 184 179 171 255
-0.38570142 5.2101116 0.025118709 184 179 171 255
-0.38570142 5.2101116 2.918928 184 179 171 255
-4.786165 -10.345274 0.3788787 184 179 171 255
-4.786165 -10.345274 3.272688 184 179 171 255
-1.064301 -5.2590733 0.3788787 184 179 171 255
-1.064301 -5.2590733 3.272688 184 179 171 255
-3.976675 -10.937624 0.3788787 184 179 171 255
-3.976675 -10.937624 3.272688 184 179 171 255
-0.2548108 -5.8514233 0.3788787 184 179 171 255
-0.2548108 -5.8514233 3.272688 184 179 171 255
-1.5187702 -26.646233 0.16008271 63 155 10 255
41.513344 -26.646233 0.16008271 63 155 10 255
-1.5187702 14.99636 0.16008271 63 155 10 255
41.513344 14.99636 0.16008271 63 155 10 255
-5.0911045 -12.88689 5.6452084 57 130 10 255
4.4865274 -19.625233 4.5835733 57 130 10 255
-0.6918055 -5.8367767 0.5858357 57 130 10 255
8.885826 -12.575119 -0.47579932 57 130 10 255
-1.3875694 4.829727 -0.03075242 63 143 10 255
-1.3875694 4.829727 4.046417 63 143 10 255
-5.8114014 25.790411 -0.03075242 63 143 10 255
-5.8114014 25.790411 4.046417 63 143 10 255
19.834764 9.308783 -0.03075242 63 143 10 255
19.834764 9.308783 4.046417 63 143 10 255
15.410933 30.269466 -0.03075242 63 143 10 255
15.410933 30.269466 4.046417 63 143 10 255
-27.899603 -28.103058 2.6915872 13 100 177 255
-3.8177586 -30.425655 2.6915872 13 100 177 255
-22.633192 26.501678 2.6915872 13 100 177 255
1.4486523 24.179081 2.6915872 13 100 177 255
3 1 2 0
3 3 6 2
3 7 4 6
3 5 0 4
3 6 0 2
3 3 5 7
3 1 3 2
3 3 7 6
3 7 5 4
3 5 1 0
3 6 4 0
3 3 1 5
3 9 10 8
3 11 14 10
3 15 12 14
3 13 8 12
3 14 8 10
3 11 13 15
3 17 18 16
3 19 22 18
3 23 20 22
3 20 17 16
3 22 16 18
3 19 21 23
3 25 26 24
3 27 30 26
3 31 28 30
3 28 25 24
3 30 24 26
3 27 29 31
3 33 34 32
3 34 39 38
3 39 36 38
3 37 32 36
3 38 32 34
3 35 37 39
3 41 42 40
3 43 46 42
3 47 44 46
3 44 41 40
3 46 40 42
3 43 45 47
3 49 50 48
3 50 55 54
3 55 52 54
3 53 48 52
3 54 48 50
3 51 53 55
3 57 58 56
3 59 62 58
3 63 60 62
3 61 56 60
3 62 56 58
3 59 61 63
3 65 66 64
3 67 70 66
3 71 68 70
3 68 65 64
3 70 64 66
3 67 69 71
3 73 74 72
3 75 78 74
3 79 76 78
3 77 72 76
3 78 72 74
3 75 77 79
3 81 82 80
3 83 86 82
3 87 84 86
3 84 81 80
3 86 80 82
3 83 85 87
3 89 90 88
3 91 94 90
3 95 92 94
3 93 88 92
3 94 88 90
3 91 93 95
3 97 98 96
3 99 102 98
3 103 100 102
3 100 97 96
3 102 96 98
3 99 101 103
3 105 106 104
3 107 110 106
3 111 108 110
3 109 104 108
3 110 104 106
3 107 109 111
3 113 114 112
3 115 118 114
3 119 116 118
3 116 113 112
3 118 112 114
3 115 117 119
3 121 122 120
3 123 126 122
3 127 124 126
3 125 120 124
3 126 120 122
3 123 125 127
3 129 130 128
3 131 134 130
3 135 132 134
3 132 129 128
3 134 128 130
3 131 133 135
3 137 138 136
3 139 142 138
3 143 140 142
3 141 136 140
3 142 136 138
3 139 141 143
3 145 146 144
3 147 150 146
3 151 148 150
3 148 145 144
3 150 144 146
3 147 149 151
3 153 154 152
3 154 159 158
3 159 156 158
3 157 152 156
3 158 152 154
3 155 157 159
3 161 162 160
3 163 166 162
3 167 164 166
3 164 161 160
3 166 160 162
3 163 165 167
3 169 170 168
3 9 11 10
3 11 15 14
3 15 13 12
3 13 9 8
3 14 12 8
3 11 9 13
3 17 19 18
3 19 23 22
3 23 21 20
3 20 21 17
3 22 20 16
3 19 17 21
3 25 27 26
3 27 31 30
3 31 29 28
3 28 29 25
3 30 28 24
3 27 25 29
3 33 35 34
3 34 35 39
3 39 37 36
3 37 33 32
3 38 36 32
3 35 33 37
3 41 43 42
3 43 47 46
3 47 45 44
3 44 45 41
3 46 44 40
3 43 41 45
3 49 51 50
3 50 51 55
3 55 53 52
3 53 49 48
3 54 52 48
3 51 49 53
3 57 59 58
3 59 63 62
3 63 61 60
3 61 57 56
3 62 60 56
3 59 57 61
3 65 67 66
3 67 71 70
3 71 69 68
3 68 69 65
3 70 68 64
3 67 65 69
3 73 75 74
3 75 79 78
3 79 77 76
3 77 73 72
3 78 76 72
3 75 73 77
3 81 83 82
3 83 87 86
3 87 85 84
3 84 85 81
3 86 84 80
3 83 81 85
3 89 91 90
3 91 95 94
3 95 93 92
3 93 89 88
3 94 92 88
3 91 89 93
3 97 99 98
3 99 103 102
3 103 101 100
3 100 101 97
3 102 100 96
3 99 97 101
3 105 107 106
3 107 111 110
3 111 109 108
3 109 105 104
3 110 108 104
3 107 105 109
3 113 115 114
3 115 119 118
3 119 117 116
3 116 117 113
3 118 116 112
3 115 113 117
3 121 123 122
3 123 127 126
3 127 125 124
3 125 121 120
3 126 124 120
3 123 121 125
3 129 131 130
3 131 135 134
3 135 133 132
3 132 133 129
3 134 132 128
3 131 129 133
3 137 139 138
3 139 143 142
3 143 141 140
3 141 137 136
3 142 140 136
3 139 137 141
3 145 147 146
3 147 151 150
3 151 149 148
3 148 149 145
3 150 148 144
3 147 145 149
3 153 155 154
3 154 155 159
3 159 157 156
3 157 153 152
3 158 156 152
3 155 153 157
3 161 163 162
3 163 167 166
3 167 165 164
3 164 165 161
3 166 164 160
3 163 161 165
3 169 171 170
3 173 174 172
3 173 175 174
3 177 178 176
3 179 182 178
3 183 180 182
3 181 176 180
3 182 176 178
3 179 181 183
3 185 186 184
3 187 190 186
3 191 188 190
3 189 184 188
3 190 184 186
3 187 189 191
3 177 179 178
3 179 183 182
3 183 181 180
3 181 177 176
3 182 180 176
3 179 177 181
3 185 187 186
3 187 191 190
3 191 189 188
3 189 185 184
3 190 188 184
3 187 185 189
3 193 194 192
3 195 198 194
3 199 196 198
3 197 192 196
3 198 192 194
3 195 197 199
3 193 195 194
3 195 199 198
3 199 197 196
3 197 193 192
3 198 196 192
3 195 193 197
3 201 202 200
3 201 203 202
3 205 206 204
3 205 207 206
3 209 210 208
3 211 214 210
3 215 212 214
3 213 208 212
3 214 208 210
3 211 213 215
3 209 211 210
3 211 215 214
3 215 213 212
3 213 209 208
3 214 212 208
3 211 209 213
3 217 218 216
3 217 219 218
