ply
format ascii 1.0
comment Created in Blender version 4.4.0
element vertex 28
property float x
property float y
property float z
property float s
property float t
element face 24
property list uchar uint vertex_indices
end_header
-1 1 2.1941934 0.875 0.5
1 -1 2.1941934 0.625 0.75
1 1 2.1941934 0.625 0.5
-1 -1 0.19419348 0.375 1
1 -1 0.19419348 0.375 0.75
-1 -1 2.1941934 0.625 0
-1 1 0.19419348 0.375 0.25
-1 -1 0.19419348 0.375 0
1 1 0.19419348 0.375 0.5
-1 -1 0.19419348 0.125 0.75
-1 1 0.19419348 0.125 0.5
-1 1 2.1941934 0.625 0.25
-1 -1 2.1941934 0.875 0.75
-1 -1 2.1941934 0.625 1
2.2925005 4.004835 -0.3341279 0.875 0.5
4.2925005 2.0048351 -0.3341279 0.625 0.75
4.2925005 4.004835 -0.3341279 0.625 0.5
2.2925005 2.0048351 -2.334128 0.375 1
4.2925005 2.0048351 -2.334128 0.375 0.75
2.2925005 2.0048351 -0.3341279 0.625 0
2.2925005 4.004835 -2.334128 0.375 0.25
2.2925005 2.0048351 -2.334128 0.375 0
4.2925005 4.004835 -2.334128 0.375 0.5
2.2925005 2.0048351 -2.334128 0.125 0.75
2.2925005 4.004835 -2.334128 0.125 0.5
2.2925005 4.004835 -0.3341279 0.625 0.25
2.2925005 2.0048351 -0.3341279 0.875 0.75
2.2925005 2.0048351 -0.3341279 0.625 1
3 0 1 2
3 1 3 4
3 5 6 7
3 8 9 10
3 2 4 8
3 11 8 6
3 0 12 1
3 1 13 3
3 5 11 6
3 8 4 9
3 2 1 4
3 11 2 8
3 14 15 16
3 15 17 18
3 19 20 21
3 22 23 24
3 16 18 22
3 25 22 20
3 14 26 15
3 15 27 17
3 19 25 20
3 22 18 23
3 16 15 18
3 25 16 22
